<svg xmlns="http://www.w3.org/2000/svg"  version="1.1" viewBox="0 0 752 752">
 <path d="m596.18 386.56c0.050781-0.49219 0.050781-1.0039-0.007812-1.5156-0.41797-3.543-3.375-6.125-6.8281-6.2383-1.332-0.050782-69.781-3.1055-84.133-41.246-12.047-32.02 17.211-82.465 84.609-145.99 2.8555-2.6914 2.9883-7.0625 0.29688-9.918-0.097656-0.10938-0.22266-0.18359-0.32812-0.28516-0.15625-0.21875-0.22266-0.47656-0.40625-0.68359-2.625-2.918-7.1133-3.1523-10.031-0.51563-0.875 0.78906-88.258 78.66-158.86 64.062-28.18-5.8281-50.367-26.051-65.949-60.113-0.058593-0.125-0.13672-0.22656-0.19922-0.34766-0.11719-0.22656-0.24219-0.44922-0.38672-0.66406-0.125-0.1875-0.26172-0.35937-0.39844-0.53125-0.15234-0.17969-0.29688-0.35547-0.46875-0.51953-0.17188-0.17188-0.34766-0.32031-0.53125-0.47266-0.17188-0.13672-0.33984-0.27344-0.51953-0.39453-0.21875-0.14844-0.44141-0.26953-0.67188-0.39453-0.11719-0.0625-0.21875-0.14062-0.33984-0.19922-0.070313-0.03125-0.14844-0.042969-0.21875-0.070313-0.24219-0.097656-0.49219-0.17969-0.74219-0.25-0.19922-0.058593-0.39844-0.11719-0.60156-0.16016-0.24219-0.046875-0.48828-0.070313-0.73047-0.09375-0.21484-0.019531-0.42578-0.042969-0.64062-0.042969-0.23828 0-0.47266 0.027344-0.71094 0.050782-0.22266 0.023437-0.44531 0.042968-0.66797 0.089843-0.21484 0.042969-0.42578 0.10938-0.64063 0.17578-0.24219 0.070313-0.48437 0.14844-0.71484 0.24219-0.074219 0.027344-0.15234 0.042969-0.22266 0.074219-0.125 0.058593-0.22266 0.13672-0.33984 0.19922-0.22656 0.11719-0.44922 0.24609-0.66797 0.38672-0.18359 0.125-0.35547 0.26172-0.52734 0.39844-0.18359 0.15234-0.35938 0.30469-0.53125 0.47656-0.16406 0.16406-0.3125 0.33984-0.46484 0.51953-0.14062 0.17578-0.28125 0.35156-0.40234 0.53516-0.13672 0.21484-0.26172 0.42969-0.37891 0.65234-0.0625 0.125-0.14844 0.22656-0.20312 0.35547-0.25391 0.5625-26.203 56.707-75.523 69.535-28.723 7.4688-60.129-1.1836-93.34-25.715-0.48828-0.35938-1.0039-0.625-1.5391-0.84375-0.089844-0.039063-0.17578-0.0625-0.26172-0.09375-0.78906-0.28906-1.6055-0.4375-2.4258-0.4375-0.074219 0-0.14062 0.007812-0.21484 0.007812-0.83984 0.027344-1.6641 0.19531-2.4375 0.50781-0.074219 0.027344-0.14062 0.070312-0.21484 0.097656-0.77344 0.33984-1.4805 0.82031-2.1094 1.4336-0.027343 0.027344-0.074219 0.039062-0.10547 0.070312-0.042968 0.046875-0.058593 0.10547-0.097656 0.15234-0.17969 0.19531-0.37109 0.37109-0.52734 0.58203-0.35937 0.48438-0.62109 1.0039-0.83984 1.5391-0.039063 0.089844-0.0625 0.17969-0.09375 0.26953-0.28516 0.78516-0.4375 1.5898-0.4375 2.4062 0 0.089844 0.007812 0.17188 0.015625 0.26172 0.027344 0.82031 0.19531 1.625 0.49609 2.3906 0.03125 0.089843 0.082031 0.17188 0.11719 0.26172 0.33984 0.75781 0.80859 1.4648 1.4141 2.0742 0.03125 0.03125 0.042968 0.082032 0.074218 0.10938 0.62109 0.60547 62.277 61.555 55.719 125.97-3.3086 32.5-23.574 60.887-60.227 84.375-0.042969 0.027344-0.074219 0.066407-0.11328 0.09375-0.22266 0.14844-0.42187 0.31641-0.625 0.49219-0.16797 0.15234-0.33203 0.27734-0.48047 0.42969-0.15625 0.15625-0.28516 0.32812-0.42188 0.49219-0.15625 0.19531-0.32031 0.37891-0.45312 0.58203-0.10547 0.16016-0.18359 0.33594-0.28125 0.50391-0.12891 0.23047-0.26172 0.46094-0.35938 0.69531-0.074219 0.18359-0.125 0.375-0.18359 0.5625-0.074219 0.24609-0.16016 0.48828-0.20703 0.73438-0.039063 0.1875-0.046875 0.38672-0.070313 0.58203-0.027343 0.26562-0.066406 0.52734-0.066406 0.79688 0 0.17578 0.023437 0.35156 0.039063 0.52734 0.019531 0.29688 0.042968 0.59375 0.10547 0.89062 0.007813 0.046875 0 0.089844 0.011719 0.12891 0.027344 0.13672 0.089844 0.26172 0.12891 0.39453 0.074219 0.28125 0.15625 0.55078 0.26953 0.82422 0.085938 0.20703 0.19922 0.39844 0.30469 0.59766 0.089844 0.16406 0.15234 0.33984 0.25391 0.50391 0.027344 0.042969 0.066406 0.070313 0.09375 0.10938 0.29688 0.44922 0.64062 0.86719 1.0312 1.2266 0.10547 0.097656 0.22656 0.17578 0.33984 0.26953 0.29688 0.25 0.60938 0.47656 0.94531 0.67578 0.17578 0.097657 0.35156 0.18359 0.53125 0.27344 0.3125 0.14844 0.63281 0.26953 0.97266 0.37109 0.17969 0.058594 0.35156 0.11328 0.53125 0.15625 0.42188 0.09375 0.85547-0.32031 1.2969-0.30469 0.085937-0.003906 0.16016-0.44531 0.24219-0.44531h0.039063c0.48828 0 0.98047 0.41797 1.4766 0.30469 0.53906-0.11719 54.516-11.293 77.223 14.852 13.965 16.078 13.785 43.934-0.53125 82.574-0.027343 0.082032-0.039062 0.21875-0.0625 0.29688-0.082031 0.23828-0.13281 0.50391-0.18359 0.74219-0.050781 0.22266-0.097657 0.46094-0.12891 0.68359-0.023437 0.22656-0.027343 0.44922-0.03125 0.67578-0.003906 0.23828-0.015624 0.48438 0.003907 0.71484 0.015625 0.21875 0.058593 0.4375 0.09375 0.65234 0.039062 0.23047 0.074219 0.46094 0.13672 0.6875 0.0625 0.22266 0.14844 0.4375 0.22656 0.64844 0.082031 0.20703 0.15625 0.41797 0.25 0.61719 0.097656 0.20703 0.22656 0.40625 0.35156 0.60547 0.11719 0.19531 0.24219 0.38672 0.37891 0.56641 0.13281 0.17187 0.28516 0.33203 0.42969 0.49219 0.17578 0.18359 0.34766 0.37109 0.53906 0.53906 0.0625 0.050781 0.10547 0.11328 0.17188 0.16406 0.10938 0.09375 0.23828 0.14844 0.35156 0.23047 0.19922 0.14062 0.39844 0.28516 0.61719 0.40625 0.22266 0.12891 0.45312 0.23828 0.69141 0.33594 0.125 0.058594 0.23047 0.12891 0.35938 0.17578 0.046875 0.019531 0.09375 0.007812 0.14062 0.027343 0.69922 0.24219 1.4219 0.36328 2.1484 0.38281 0.0625 0 0.11719 0.03125 0.17969 0.03125 0.082031 0 0.15234-0.03125 0.22656-0.03125 0.62891-0.023438 1.2578-0.097656 1.8672-0.28906 0.023437-0.007812 0.046875-0.023437 0.070313-0.027343 0.57812-0.18359 1.1172-0.46484 1.6367-0.79688 0.11719-0.074218 0.23828-0.14844 0.35156-0.23047 0.48828-0.35547 0.95312-0.75391 1.3555-1.2461 0.40625-0.49609 41.258-50.039 76.984-43.977 16.875 2.8594 30.574 18.355 40.762 46.012 0.41016 3.5391 3.2305 6.8398 6.7656 6.8398h0.25391c3.8047 0 6.9531-3.6328 7.0977-7.457 0.015625-0.45312 2-46.055 31.66-59.098 20.516-9.0117 61.633-5.5391 141.04 62.121 2.9883 2.5586 7.4727 2.2305 10.012-0.75781 2.543-2.9883 2.1875-7.3945-0.80078-9.9375-6.3047-5.3711-12.422-10.32-18.449-15.066-27.449-25.066-67.586-70.988-58.422-103.95 6.4883-23.328 36.746-38.973 89.934-46.555 4.9219 0.57812 8.1328 0.73437 8.7422 0.73437h0.26563c3.8086 0 6.957-3.9883 7.0938-7.8125 0.003906-0.19141-0.027344-0.38281-0.035157-0.57422zm-104.27-43.078c6.8086 18.113 22.262 29.891 38.875 37.547l-40.227 0.023437c-0.046875-0.003906-0.085938-0.03125-0.12891-0.039062-0.25391-0.023438-25.586-2.5859-34.273-21.27-7.8711-16.93-0.082031-43.137 22.52-75.805l40.273-34.613c-27.191 37.777-36.348 69.406-27.039 94.156zm-48.211 114.15-31.43-26.777c-1.4414-2.5234-7.1797-13.562-3.3398-23.578 2.8906-7.5352 10.719-13.148 23.234-16.719l30.059-0.019532c-12.246 6.5391-20.16 15.238-23.617 26.016-4.4609 13.895-0.63281 28.742 5.0938 41.078zm-155.1-15.113c-7.9805-10.539-20.383-15.352-31.27-17.535l28.09-10.453c1.7422-0.30859 12.824-1.8789 20.129 4.5234 5.3438 4.6836 7.6992 12.844 7.0703 24.191l-16.141 27.137c0.34375-11.012-2.2109-20.375-7.8789-27.863zm-23.805-124.09 28.406 23.199c3.7422 7.0703 20.691 43.227-11.152 64.043l-22.82 8.4922c9.5078-10.746 15.359-22.945 17.434-36.484 3.375-22.094-3.8828-43.477-11.867-59.25zm182.8 45.375c3.6523 7.8203 9.3594 13.332 15.391 17.262l-31.234 0.019532c-2.7461-0.78516-14.094-4.5703-18.203-14.562-3.4844-8.4492-1.0117-19.516 7.2891-32.875l34.738-29.859c-12.492 24.473-15.188 44.59-7.9805 60.016zm-42.801 6.3242c1.875 4.5547 4.7305 8.1367 7.8477 10.969l-47.039 0.027344 38.449-33.051c-2.1328 8.1289-1.9492 15.52 0.74219 22.055zm-46.516 4.7969-1.4062-48.367c4.7461 5.1328 10.355 8.9688 16.852 11.355 5.8516 2.1484 11.812 2.9414 17.402 2.9414 2.5273 0 4.9727-0.17188 7.3086-0.44141zm-10.836-46.973 1.3594 46.875-32.398-26.465c2.9492-0.16016 5.8633-0.64453 8.7188-1.6445 9.832-3.4375 17.215-11.332 22.32-18.766zm-3.8906 54.832-40.359 15.016c9.4023-14.898 7.957-31.816 4.6016-44.234zm-1.2812 10.582-21.145 35.555c-1.5156-7.1758-4.6367-12.898-9.4062-17.055-2.2578-1.9648-4.6992-3.4062-7.1719-4.4648zm7.6797 5.6133 5.1992 37.402c-4.1758-3.0312-8.6953-4.8477-13.539-5.3906-4.0508-0.46094-7.8672 0.050781-11.312 1.0234zm9.4648-0.73047 28.523 24.309c-4.6328-0.082031-8.8789 0.86719-12.684 2.9414-4.6992 2.5664-8.0938 6.4727-10.566 10.699zm40.641 5.7031c-1.9805 5.2148-2.1992 10.43-1.5977 15.133l-33.434-28.492 45.273-0.027344c-4.8281 3.7344-8.2695 8.1992-10.242 13.387zm14.539-77.43c-3.2266 1.375-21.312 8.4961-37.605 2.5039-8.8906-3.2695-15.816-10.055-20.629-20.121l-1.1289-38.816c10.168 14.738 23.145 24.547 38.742 29.227 7.4648 2.2383 15.016 3.1523 22.375 3.1523 11.66 0 22.809-2.3125 32.387-5.2891zm-67.703-17.375c-1.5742 3.9023-10.086 23.445-24.902 28.637-7.1328 2.4922-14.625 1.2656-22.895-3.7656-0.14844-0.089844-0.30859-0.09375-0.46094-0.16406l-26.781-21.879c3.9297 0.73828 7.8203 1.1562 11.645 1.1562 6.5039 0 12.844-1.0703 19.008-3.207 20.871-7.2422 35.02-25.117 43.27-38.898zm-25.898 138.53c1.9023-1.6484 10.25-8.293 19.633-7.2617 6.1484 0.69922 11.773 4.7422 16.75 11.938l4.1016 29.484c-11.289-11.391-23.191-16.949-35.395-16.547-6.9219 0.23047-13.215 2.3711-18.762 5.3828zm46.723 10.289c0.24609-2.6914 2.1328-18.738 12.105-24.16 6.2812-3.4141 15.078-2.0312 26.133 4.1016l31.867 27.152c-20.41-6.6289-37.359-6.6719-50.582-0.074219-7.7305 3.8594-12.953 9.3945-16.484 14.785zm49.918-199.83c7.0547 1.457 14.219 2.1211 21.402 2.1211 26.297 0 52.934-8.9023 76.316-20.336l-42.133 36.219c-2.5273 1.5352-41.48 24.613-76.516 14.098-18.062-5.418-32.207-19.023-42.059-40.426l-1.1016-38.035c16.535 25.391 38.008 40.977 64.09 46.359zm-172.08 12.359c8.1602 0 16.203-1.0273 24.105-3.082 36.789-9.5703 61.445-39.043 74.32-58.758l1.2344 42.648c-2.9258 7.0078-18.02 40.055-45.844 49.684-15.715 5.4336-33.117 2.4727-51.719-8.7891l-31.996-26.141c10.125 2.9531 20.102 4.4375 29.898 4.4375zm-12.133 95.598c3.6328-35.879-10.883-69.797-26.551-94.984l34.703 28.352c2.543 3.1484 31.391 39.887 25.703 76.824-2.8945 18.816-14.41 34.824-34.188 47.602l-36.133 13.449c21.52-20.93 33.785-44.773 36.465-71.242zm-31.543 79.52 34.41-12.805c4.3555-0.21875 32.383-0.94141 44.773 15.453 7.9531 10.527 8.0859 26.445 0.42188 47.312l-16.398 27.57c3.0938-23.766-1.1328-42.496-12.77-55.867-12.969-14.914-32.672-20.27-50.438-21.664zm130.74 62.441c-21.184-3.5703-42.535 7.2109-59.184 19.574l16.398-27.578c0.15234-0.24609 15.438-24.582 36.551-25.293 12.66-0.36328 25.305 7.918 37.527 24.684l4.5625 32.809c-9.9844-13.723-21.973-21.836-35.855-24.195zm78.383-12.387c-17.422 7.6914-27.273 22.961-32.844 37.406l-4.918-35.367c0.64844-3.0117 4.4219-17.422 18.328-24.305 15.961-7.9023 40.512-3.4961 70.977 12.73l18.84 16.051c-28.145-12.504-51.715-14.762-70.383-6.5156zm65.477-58.711c-5.4219 19.496 1.7227 40.672 13.566 60.168l-21.516-18.332c-2-2.3008-29.02-34.164-20.91-59.363 4.4062-13.688 18.805-23.398 42.742-28.906l41.789-0.023438c-31.238 10.375-49.949 25.895-55.672 46.457z" fill="#ff001b"/>
</svg>